<?xml version="1.0" encoding="UTF-8" standalone="no"?>
<!-- Created with Inkscape (http://www.inkscape.org/) -->

<svg
   xmlns:dc="http://purl.org/dc/elements/1.1/"
   xmlns:cc="http://creativecommons.org/ns#"
   xmlns:rdf="http://www.w3.org/1999/02/22-rdf-syntax-ns#"
   xmlns:svg="http://www.w3.org/2000/svg"
   xmlns="http://www.w3.org/2000/svg"
   xmlns:sodipodi="http://sodipodi.sourceforge.net/DTD/sodipodi-0.dtd"
   xmlns:inkscape="http://www.inkscape.org/namespaces/inkscape"
   width="525"
   height="50"
   id="svg3008"
   version="1.1"
   inkscape:version="0.48.0 r9654"
   sodipodi:docname="email.svg">
  <defs
     id="defs3010" />
  <sodipodi:namedview
     id="base"
     pagecolor="#ffffff"
     bordercolor="#666666"
     borderopacity="1.0"
     inkscape:pageopacity="0.0"
     inkscape:pageshadow="2"
     inkscape:zoom="1.4"
     inkscape:cx="254.48266"
     inkscape:cy="35.166637"
     inkscape:document-units="px"
     inkscape:current-layer="layer1"
     showgrid="false"
     inkscape:window-width="627"
     inkscape:window-height="573"
     inkscape:window-x="512"
     inkscape:window-y="25"
     inkscape:window-maximized="0" />
  <metadata
     id="metadata3013">
    <rdf:RDF>
      <cc:Work
         rdf:about="">
        <dc:format>image/svg+xml</dc:format>
        <dc:type
           rdf:resource="http://purl.org/dc/dcmitype/StillImage" />
        <dc:title />
      </cc:Work>
    </rdf:RDF>
  </metadata>
  <g
     inkscape:label="Layer 1"
     inkscape:groupmode="layer"
     id="layer1"
     transform="translate(0,-1002.3622)">
    <g
       style="font-size:40px;font-style:normal;font-weight:normal;line-height:125%;letter-spacing:0px;word-spacing:0px;fill:#000000;fill-opacity:1;stroke:none;font-family:Sans"
       id="text3016">
      <path
         d="m 4.0864944,1041.0625 1.7773438,0 0.9570312,4.9492 c 0.3463473,0.4375 0.8294198,0.8568 1.4492188,1.2578 0.6197831,0.3828 1.3033761,0.7292 2.0507808,1.0391 0.765615,0.2917 1.567697,0.5286 2.40625,0.7109 0.838529,0.1641 1.658841,0.2461 2.460938,0.2461 1.3854,0 2.588524,-0.1823 3.609375,-0.5468 1.020814,-0.3829 1.859355,-0.9024 2.515625,-1.5586 0.674457,-0.6563 1.175759,-1.431 1.503906,-2.3243 0.328102,-0.8932 0.492165,-1.8684 0.492188,-2.9257 -2.3e-5,-1.3125 -0.282575,-2.3972 -0.847657,-3.2539 -0.546896,-0.8568 -1.276062,-1.5769 -2.1875,-2.1602 -0.893248,-0.6016 -1.91408,-1.1029 -3.0625,-1.5039 -1.148453,-0.4193 -2.333347,-0.8385 -3.554687,-1.2578 -1.203137,-0.4193 -2.378917,-0.8841 -3.527344,-1.3946 -1.148446,-0.5104 -2.1783929,-1.1575 -3.0898436,-1.9414 -0.893235,-0.7838 -1.6224009,-1.7499 -2.1875,-2.8984 -0.546879,-1.1666 -0.8203162,-2.5976 -0.8203125,-4.293 -3.7e-6,-1.4218 0.2734335,-2.707 0.8203125,-3.8554 0.5468699,-1.1667 1.3489525,-2.151 2.40625,-2.9532 1.0572837,-0.8202 2.3515532,-1.4491 3.8828126,-1.8867 1.549467,-0.4374 3.30858,-0.6562 5.277344,-0.6562 1.804669,0 3.518209,0.1185 5.140625,0.3554 1.622373,0.2371 3.117163,0.5105 4.484375,0.8203 l 0,7.629 -1.777344,0 -0.957031,-4.4844 c -0.802106,-0.5833 -1.78648,-1.0664 -2.953125,-1.4492 -1.166686,-0.3828 -2.479185,-0.5742 -3.9375,-0.5743 -1.348973,10e-5 -2.515639,0.1459 -3.5,0.4375 -0.966158,0.2917 -1.76824,0.6928 -2.40625,1.2032 -0.6380307,0.4922 -1.1119886,1.0846 -1.4218753,1.7773 -0.3099043,0.6745 -0.4648521,1.4037 -0.4648438,2.1875 -8.3e-6,1.1849 0.2734289,2.1693 0.8203125,2.9531 0.5650946,0.7839 1.2942606,1.4584 2.1874996,2.0235 0.911447,0.5469 1.941393,1.0208 3.089844,1.4219 1.166651,0.401 2.351546,0.8203 3.554688,1.2578 1.221335,0.4193 2.406229,0.9023 3.554687,1.4492 1.166644,0.5286 2.196591,1.2122 3.089844,2.0508 0.911433,0.8203 1.640599,1.832 2.1875,3.0351 0.565077,1.1849 0.847629,2.6524 0.847656,4.4024 -2.7e-5,1.6953 -0.26435,3.2265 -0.792969,4.5937 -0.510443,1.3672 -1.294296,2.543 -2.351562,3.5274 -1.039086,0.9661 -2.351585,1.7135 -3.9375,2.2421 -1.567727,0.5105 -3.417986,0.7657 -5.550781,0.7657 -1.130223,0 -2.242201,-0.055 -3.335938,-0.1641 -1.09376,-0.1094 -2.1237073,-0.2552 -3.0898436,-0.4375 -0.9661534,-0.1823 -1.8593817,-0.3919 -2.6796875,-0.6289 -0.8203176,-0.237 -1.5312544,-0.474 -2.1328125,-0.7109 l 0,-8.4766"
         style="font-size:56px;font-variant:normal;font-stretch:normal;font-family:Liberation Serif;-inkscape-font-specification:Liberation Serif"
         id="path3204"
         inkscape:connector-curvature="0" />
      <path
         d="m 48.402901,1037.3711 c -2.1e-5,-1.8594 -0.173198,-3.418 -0.519532,-4.6758 -0.328145,-1.276 -0.811217,-2.306 -1.449218,-3.0898 -0.61981,-0.7839 -1.37632,-1.3399 -2.269532,-1.668 -0.875015,-0.3463 -1.850275,-0.5195 -2.925781,-0.5195 -0.437513,0 -0.911471,0.018 -1.421875,0.055 -0.492199,0.036 -0.984386,0.1002 -1.476562,0.1914 -0.492198,0.073 -0.966156,0.164 -1.421875,0.2734 -0.455738,0.1094 -0.847665,0.237 -1.175782,0.3828 l 0,20.3711 c 0.765616,0.1458 1.640616,0.2552 2.625,0.3281 0.984364,0.073 1.941394,0.1094 2.871094,0.1094 2.515609,0 4.338524,-0.9844 5.46875,-2.9531 1.130188,-1.9688 1.695292,-4.9037 1.695313,-8.8047 m -17.199219,-23.4063 -3.746094,-0.6562 0,-1.2305 8.285156,0 0,9.1875 c -8e-6,0.3464 -0.0091,0.7474 -0.02734,1.2031 -9e-6,0.4376 -0.0091,0.9024 -0.02734,1.3946 -8e-6,0.474 -0.01824,0.957 -0.05469,1.4492 -0.01824,0.474 -0.03647,0.9297 -0.05469,1.3672 0.820304,-0.638 1.813792,-1.1484 2.980469,-1.5313 1.184883,-0.401 2.488267,-0.6015 3.910156,-0.6015 3.499981,0 6.179666,1.0664 8.039062,3.1992 1.87758,2.1146 2.816381,5.3229 2.816407,9.625 -2.6e-5,2.1693 -0.237005,4.1289 -0.710938,5.8789 -0.473983,1.7318 -1.203149,3.2083 -2.1875,4.4297 -0.984397,1.2213 -2.233093,2.1601 -3.746094,2.8164 -1.494809,0.6562 -3.272151,0.9844 -5.332031,0.9844 -0.875013,0 -1.768241,-0.055 -2.679687,-0.1641 -0.89324,-0.091 -1.777353,-0.2187 -2.652344,-0.3828 -0.875008,-0.1641 -1.722663,-0.3555 -2.542969,-0.5742 -0.820317,-0.237 -1.576827,-0.4922 -2.269531,-0.7656 l 0,-35.629"
         style="font-size:56px;font-variant:normal;font-stretch:normal;font-family:Liberation Serif;-inkscape-font-specification:Liberation Serif"
         id="path3206"
         inkscape:connector-curvature="0" />
      <path
         d="m 67.172432,1024.6563 c 1.166653,0 2.251287,0.1094 3.253906,0.3281 1.002587,0.2188 1.868472,0.5924 2.597656,1.1211 0.729148,0.5286 1.294251,1.2487 1.695313,2.1601 0.41925,0.8933 0.628885,2.0235 0.628906,3.3907 l 0,17.3632 3.199219,0.6836 0,1.2305 -7.054688,0 -0.519531,-2.5703 c -0.273454,0.2734 -0.647151,0.5924 -1.121094,0.957 -0.455744,0.3646 -1.011733,0.711 -1.667968,1.0391 -0.656263,0.3099 -1.421888,0.5742 -2.296875,0.7929 -0.856782,0.2188 -1.813812,0.3282 -2.871094,0.3282 -1.239591,0 -2.287767,-0.1914 -3.144531,-0.5742 -0.838547,-0.3829 -1.513025,-0.9115 -2.023438,-1.586 -0.510419,-0.6927 -0.875002,-1.5039 -1.09375,-2.4336 -0.218752,-0.9479 -0.328127,-1.9687 -0.328125,-3.0625 -2e-6,-1.1302 0.136717,-2.1054 0.410156,-2.9258 0.273435,-0.8385 0.656247,-1.5403 1.148438,-2.1054 0.492183,-0.5651 1.066402,-1.0209 1.722656,-1.3672 0.674473,-0.3646 1.394525,-0.6471 2.160156,-0.8477 0.783846,-0.2005 1.604158,-0.3372 2.460938,-0.4101 0.874989,-0.073 1.749988,-0.1185 2.625,-0.1367 l 3.855469,-0.1094 0,-4.0196 c -1.7e-5,-0.7656 -0.06382,-1.4583 -0.191407,-2.0781 -0.12762,-0.638 -0.34637,-1.1849 -0.65625,-1.6406 -0.291681,-0.4557 -0.692723,-0.8112 -1.203125,-1.0664 -0.51043,-0.2552 -1.14845,-0.3828 -1.914062,-0.3828 -0.875012,0 -1.759125,0.1185 -2.652344,0.3554 -0.893238,0.237 -1.677091,0.5469 -2.351562,0.9297 l -0.929688,3.1993 -1.53125,0 0,-5.6055 c 1.18489,-0.2552 2.406243,-0.474 3.664063,-0.6563 1.276032,-0.2005 2.652332,-0.3007 4.128906,-0.3007 m 3.636719,13.1796 -3.582032,0.1094 c -1.075532,0.036 -2.005219,0.1459 -2.789062,0.3281 -0.783863,0.1641 -1.430998,0.4558 -1.941406,0.875 -0.510424,0.4193 -0.893237,0.9935 -1.148438,1.7227 -0.255215,0.7292 -0.382819,1.6589 -0.382812,2.7891 -7e-6,3.2083 1.303377,4.8125 3.910156,4.8125 1.239572,0 2.305977,-0.1368 3.199219,-0.4102 0.911444,-0.2917 1.822901,-0.6562 2.734375,-1.0937 l 0,-9.1329"
         style="font-size:56px;font-variant:normal;font-stretch:normal;font-family:Liberation Serif;-inkscape-font-specification:Liberation Serif"
         id="path3208"
         inkscape:connector-curvature="0" />
      <path
         d="m 97.441963,1024.5469 0,6.9453 -1.175781,0 -1.585938,-3.0078 c -0.510431,0 -1.057306,0.036 -1.640625,0.1094 -0.583346,0.073 -1.166679,0.1731 -1.75,0.3007 -0.583344,0.1094 -1.148448,0.2461 -1.695312,0.4102 -0.528656,0.1641 -0.993499,0.3372 -1.394531,0.5195 l 0,19.1953 4.402343,0.6836 0,1.2305 -12.195312,0 0,-1.2305 3.253906,-0.6836 0,-21.875 -3.253906,-0.6836 0,-1.2304 7.492187,0 0.246094,3.1992 c 0.419262,-0.3463 0.99348,-0.7383 1.722656,-1.1758 0.729156,-0.4557 1.513009,-0.8841 2.351563,-1.2851 0.856757,-0.4011 1.704412,-0.7383 2.542969,-1.0118 0.856754,-0.2734 1.613264,-0.4101 2.269531,-0.4101 l 0.410156,0"
         style="font-size:56px;font-variant:normal;font-stretch:normal;font-family:Liberation Serif;-inkscape-font-specification:Liberation Serif"
         id="path3210"
         inkscape:connector-curvature="0" />
      <path
         d="m 105.23493,1048.418 c -1e-5,0.4557 -0.0911,0.8841 -0.27344,1.2851 -0.16407,0.4011 -0.39193,0.7565 -0.68359,1.0664 -0.29168,0.2917 -0.64714,0.5196 -1.06641,0.6836 -0.40105,0.1823 -0.82943,0.2735 -1.28515,0.2735 -0.47397,0 -0.91147,-0.091 -1.3125,-0.2735 -0.40105,-0.164 -0.747403,-0.3919 -1.039064,-0.6836 -0.291671,-0.3099 -0.52865,-0.6653 -0.710938,-1.0664 -0.164066,-0.401 -0.246097,-0.8294 -0.246094,-1.2851 -3e-6,-0.4558 0.08203,-0.8841 0.246094,-1.2852 0.182288,-0.4193 0.419267,-0.7747 0.710938,-1.0664 0.291661,-0.2917 0.638014,-0.5195 1.039064,-0.6836 0.40103,-0.1823 0.83853,-0.2734 1.3125,-0.2734 0.45572,0 0.8841,0.091 1.28515,0.2734 0.41927,0.1641 0.77473,0.3919 1.06641,0.6836 0.29166,0.2917 0.51952,0.6471 0.68359,1.0664 0.18229,0.4011 0.27343,0.8294 0.27344,1.2852"
         style="font-size:56px;font-variant:normal;font-stretch:normal;font-family:Liberation Serif;-inkscape-font-specification:Liberation Serif"
         id="path3212"
         inkscape:connector-curvature="0" />
      <path
         d="m 142.03571,1049.0195 c -2.11461,0.6927 -4.31123,1.2761 -6.58984,1.75 -2.27867,0.474 -4.73049,0.711 -7.35547,0.711 -2.89846,0 -5.51434,-0.392 -7.84766,-1.1758 -2.31511,-0.8021 -4.29297,-1.9779 -5.93359,-3.5274 -1.64063,-1.5677 -2.89844,-3.4999 -3.77344,-5.7968 -0.875,-2.2969 -1.3125,-4.9492 -1.3125,-7.9571 0,-6.4166 1.60417,-11.2109 4.8125,-14.3828 3.22656,-3.19 7.9479,-4.7851 14.16407,-4.7851 2.36976,0 4.62106,0.1458 6.7539,0.4375 2.15101,0.2917 4.19268,0.6927 6.125,1.2031 l 0,7.875 -1.83203,0 -0.73828,-4.5391 c -1.25784,-0.8932 -2.77086,-1.5768 -4.53906,-2.0508 -1.75003,-0.4921 -3.60029,-0.7382 -5.55078,-0.7382 -2.13284,0 -4.03778,0.3008 -5.71485,0.9023 -1.65887,0.5834 -3.06251,1.5404 -4.21094,2.8711 -1.14844,1.3308 -2.03256,3.0808 -2.65234,5.25 -0.60157,2.1511 -0.90235,4.7852 -0.90234,7.9024 -10e-6,3.1536 0.35546,5.7877 1.0664,7.9023 0.71093,2.0964 1.66796,3.7734 2.8711,5.0312 1.22134,1.2579 2.62498,2.1511 4.21093,2.6797 1.60415,0.5287 3.29035,0.793 5.0586,0.793 0.89321,0 1.77732,-0.055 2.65234,-0.1641 0.89321,-0.1276 1.72263,-0.2825 2.48828,-0.4648 0.78383,-0.1823 1.47654,-0.3828 2.07813,-0.6016 0.60153,-0.2187 1.07549,-0.4284 1.42187,-0.6289 l 0,-10.4179 -4.70312,-0.711 0,-1.4765 13.53515,0 0,1.4765 -3.58203,0.711 0,11.9218"
         style="font-size:56px;font-variant:normal;font-stretch:normal;font-family:Liberation Serif;-inkscape-font-specification:Liberation Serif"
         id="path3214"
         inkscape:connector-curvature="0" />
      <path
         d="m 153.50446,1038 0,0.4922 c 0,1.3307 0.0911,2.6068 0.27344,3.8281 0.20051,1.2214 0.58333,2.306 1.14844,3.2539 0.58332,0.9297 1.39452,1.6771 2.43359,2.2422 1.03905,0.5469 2.40624,0.8203 4.10156,0.8203 0.54686,0 1.12108,-0.018 1.72266,-0.055 0.60155,-0.055 1.20311,-0.1185 1.80469,-0.1914 0.60154,-0.073 1.18487,-0.1549 1.75,-0.2461 0.56508,-0.091 1.08461,-0.1914 1.55859,-0.3007 l 0,1.5312 c -0.41929,0.2734 -0.92971,0.5378 -1.53125,0.793 -0.58335,0.2369 -1.23049,0.4557 -1.9414,0.6562 -0.71096,0.2005 -1.46747,0.3555 -2.26954,0.4649 -0.80209,0.1276 -1.61329,0.1914 -2.43359,0.1914 -2.13282,0 -3.93751,-0.2917 -5.41406,-0.875 -1.45834,-0.5834 -2.64324,-1.4492 -3.55469,-2.5977 -0.91146,-1.1484 -1.56771,-2.5703 -1.96875,-4.2656 -0.40104,-1.6953 -0.60156,-3.6458 -0.60156,-5.8516 0,-4.4843 0.9388,-7.8294 2.8164,-10.0351 1.8776,-2.2057 4.55729,-3.3086 8.03907,-3.3086 1.36717,0 2.64321,0.1823 3.82812,0.5469 1.20311,0.3646 2.25128,0.9752 3.14453,1.832 0.89321,0.8568 1.59503,2.0052 2.10547,3.4453 0.52863,1.4401 0.79295,3.2357 0.79297,5.3867 l 0,2.2422 -15.80469,0 m 5.9336,-11.2656 c -1.02085,0 -1.90496,0.2187 -2.65235,0.6562 -0.72917,0.4193 -1.33985,1.0209 -1.83203,1.8047 -0.47396,0.7839 -0.82943,1.7409 -1.0664,2.8711 -0.21876,1.112 -0.32814,2.3607 -0.32813,3.7461 l 10.99219,0 c -2e-5,-1.3854 -0.0821,-2.6341 -0.2461,-3.7461 -0.14585,-1.1302 -0.41928,-2.0872 -0.82031,-2.8711 -0.38283,-0.7838 -0.90236,-1.3854 -1.55859,-1.8047 -0.65627,-0.4375 -1.48569,-0.6562 -2.48828,-0.6562"
         style="font-size:56px;font-variant:normal;font-stretch:normal;font-family:Liberation Serif;-inkscape-font-specification:Liberation Serif"
         id="path3216"
         inkscape:connector-curvature="0" />
      <path
         d="m 178.33259,1038 0,0.4922 c -1e-5,1.3307 0.0911,2.6068 0.27344,3.8281 0.20051,1.2214 0.58332,2.306 1.14843,3.2539 0.58333,0.9297 1.39452,1.6771 2.4336,2.2422 1.03905,0.5469 2.40623,0.8203 4.10156,0.8203 0.54686,0 1.12108,-0.018 1.72266,-0.055 0.60154,-0.055 1.2031,-0.1185 1.80468,-0.1914 0.60155,-0.073 1.18488,-0.1549 1.75,-0.2461 0.56509,-0.091 1.08462,-0.1914 1.5586,-0.3007 l 0,1.5312 c -0.4193,0.2734 -0.92971,0.5378 -1.53125,0.793 -0.58336,0.2369 -1.23049,0.4557 -1.94141,0.6562 -0.71095,0.2005 -1.46746,0.3555 -2.26953,0.4649 -0.8021,0.1276 -1.6133,0.1914 -2.43359,0.1914 -2.13283,0 -3.93751,-0.2917 -5.41407,-0.875 -1.45834,-0.5834 -2.64323,-1.4492 -3.55468,-2.5977 -0.91147,-1.1484 -1.56772,-2.5703 -1.96875,-4.2656 -0.40105,-1.6953 -0.60157,-3.6458 -0.60157,-5.8516 0,-4.4843 0.9388,-7.8294 2.81641,-10.0351 1.8776,-2.2057 4.55728,-3.3086 8.03906,-3.3086 1.36718,0 2.64322,0.1823 3.82813,0.5469 1.2031,0.3646 2.25128,0.9752 3.14453,1.832 0.89321,0.8568 1.59503,2.0052 2.10547,3.4453 0.52862,1.4401 0.79294,3.2357 0.79297,5.3867 l 0,2.2422 -15.80469,0 m 5.93359,-11.2656 c -1.02084,0 -1.90496,0.2187 -2.65234,0.6562 -0.72918,0.4193 -1.33985,1.0209 -1.83203,1.8047 -0.47397,0.7839 -0.82944,1.7409 -1.06641,2.8711 -0.21876,1.112 -0.32813,2.3607 -0.32812,3.7461 l 10.99218,0 c -1e-5,-1.3854 -0.082,-2.6341 -0.24609,-3.7461 -0.14585,-1.1302 -0.41929,-2.0872 -0.82031,-2.8711 -0.38283,-0.7838 -0.90236,-1.3854 -1.5586,-1.8047 -0.65626,-0.4375 -1.48569,-0.6562 -2.48828,-0.6562"
         style="font-size:56px;font-variant:normal;font-stretch:normal;font-family:Liberation Serif;-inkscape-font-specification:Liberation Serif"
         id="path3218"
         inkscape:connector-curvature="0" />
      <path
         d="m 205.45759,1038.5469 10.52734,-11.3477 -2.67969,-0.7383 0,-1.2304 9.07813,0 0,1.2304 -3.19922,0.6289 -7.32812,7.4922 9.40625,14.4922 2.78906,0.6289 0,1.2305 -10.52735,0 0,-1.2305 2.35157,-0.6836 -7.05469,-11.0742 -3.36328,3.6914 0,7.3828 2.73437,0.6836 0,1.2305 -10.52734,0 0,-1.2305 3.25391,-0.6836 0,-35.0547 -3.80079,-0.6562 0,-1.2305 8.33985,0 0,26.4688"
         style="font-size:56px;font-variant:normal;font-stretch:normal;font-family:Liberation Serif;-inkscape-font-specification:Liberation Serif"
         id="path3220"
         inkscape:connector-curvature="0" />
      <path
         d="m 264.91853,1046.9648 c -0.98442,0.7657 -2.03259,1.4857 -3.14454,2.1602 -1.09378,0.6745 -2.30602,1.2669 -3.63671,1.7773 -1.31254,0.5105 -2.75264,0.9115 -4.32032,1.2032 -1.5495,0.3099 -3.26304,0.4648 -5.14062,0.4648 -3.2995,0 -6.23439,-0.5378 -8.80469,-1.6133 -2.55209,-1.0573 -4.71225,-2.5156 -6.48047,-4.375 -1.75,-1.8593 -3.08073,-4.0377 -3.99219,-6.5351 -0.91146,-2.4974 -1.36719,-5.168 -1.36718,-8.0117 -1e-5,-2.6068 0.29166,-5.0951 0.875,-7.4649 0.60155,-2.3698 1.44921,-4.5664 2.54297,-6.5898 1.11197,-2.0234 2.45181,-3.8555 4.01953,-5.4961 1.58592,-1.6588 3.35415,-3.0625 5.30468,-4.211 1.95051,-1.1666 4.06509,-2.0598 6.34375,-2.6797 2.29686,-0.6379 4.72133,-0.9569 7.27344,-0.957 3.19007,10e-5 5.98825,0.4011 8.39453,1.2031 2.40621,0.7839 4.41142,1.905 6.01563,3.3633 1.62235,1.4584 2.83459,3.2175 3.63672,5.2774 0.82026,2.0599 1.23042,4.3568 1.23047,6.8906 -5e-5,1.8776 -0.25526,3.6732 -0.76563,5.3867 -0.51046,1.7136 -1.21229,3.3086 -2.10547,4.7852 -0.89327,1.4583 -1.95056,2.789 -3.17187,3.9922 -1.2214,1.2031 -2.54301,2.233 -3.96485,3.0898 -1.42191,0.8385 -2.9167,1.4857 -4.48437,1.9414 -1.56774,0.4557 -3.14456,0.6836 -4.73047,0.6836 -0.21878,0 -0.43753,-0.018 -0.65625,-0.055 -0.20055,-0.036 -0.38284,-0.1094 -0.54688,-0.2187 -0.16409,-0.1094 -0.3008,-0.2552 -0.41015,-0.4375 -0.1094,-0.1823 -0.16409,-0.4102 -0.16406,-0.6836 -3e-5,-0.5104 0.0182,-1.0755 0.0547,-1.6953 0.0547,-0.6381 0.10935,-1.2123 0.16407,-1.7227 -0.49222,0.4922 -1.07555,1.0208 -1.75,1.5859 -0.65628,0.5651 -1.36722,1.0847 -2.13282,1.5586 -0.76564,0.474 -1.56773,0.875 -2.40625,1.2032 -0.83856,0.3099 -1.6771,0.4648 -2.51562,0.4648 -1.31252,0 -2.33335,-0.4922 -3.0625,-1.4766 -0.71095,-1.0026 -1.06642,-2.3333 -1.06641,-3.9921 -1e-5,-1.5131 0.13671,-3.0079 0.41016,-4.4844 0.27342,-1.4948 0.67446,-2.9167 1.20312,-4.2656 0.52863,-1.349 1.194,-2.5977 1.9961,-3.7461 0.80206,-1.1485 1.72263,-2.142 2.76172,-2.9805 0.87497,-0.6927 1.71351,-1.2578 2.51562,-1.6953 0.80206,-0.4557 1.62237,-0.8021 2.46094,-1.0391 0.85674,-0.2552 1.75908,-0.4283 2.70703,-0.5195 0.94789,-0.091 1.99606,-0.1367 3.14453,-0.1367 0.36455,0 0.68356,0 0.95703,0 0.29164,0 0.56507,0.01 0.82031,0.027 0.25518,0 0.50127,0.018 0.73829,0.055 0.25517,0.018 0.52861,0.046 0.82031,0.082 l -3.11719,14.4922 c -0.0912,0.3828 -0.17321,0.8021 -0.24609,1.2578 -0.0729,0.4558 -0.13675,0.9024 -0.19141,1.3399 -0.0547,0.4192 -0.10029,0.8203 -0.13672,1.2031 -0.0365,0.3828 -0.0547,0.7018 -0.0547,0.957 -3e-5,0.2188 0.0182,0.4375 0.0547,0.6563 0.0364,0.2005 0.11846,0.3828 0.2461,0.5469 0.1458,0.1458 0.34632,0.2643 0.60156,0.3554 0.2734,0.091 0.6471,0.1367 1.12109,0.1367 1.18486,0 2.29684,-0.2278 3.33594,-0.6836 1.03902,-0.4557 1.97783,-1.0755 2.81641,-1.8593 0.85673,-0.8021 1.61324,-1.7409 2.26953,-2.8164 0.67443,-1.0755 1.23042,-2.224 1.66797,-3.4453 0.45568,-1.2396 0.80203,-2.5157 1.03906,-3.8282 0.23693,-1.3307 0.35542,-2.6523 0.35547,-3.9648 -5e-5,-2.3516 -0.37375,-4.4297 -1.1211,-6.2344 -0.74744,-1.8047 -1.82296,-3.3177 -3.22656,-4.5391 -1.38546,-1.2395 -3.07165,-2.1783 -5.05859,-2.8164 -1.96879,-0.6379 -4.17451,-0.957 -6.61719,-0.957 -2.33336,0 -4.51174,0.3099 -6.53516,0.9297 -2.00523,0.6016 -3.84637,1.4492 -5.52343,2.543 -1.65887,1.0937 -3.13543,2.4154 -4.42969,3.9648 -1.27605,1.5313 -2.36069,3.2266 -3.25391,5.0859 -0.87501,1.8412 -1.54949,3.8282 -2.02344,5.961 -0.45573,2.1146 -0.6836,4.3112 -0.68359,6.5898 -1e-5,2.4063 0.35546,4.7123 1.06641,6.918 0.71093,2.2057 1.79556,4.1471 3.2539,5.8242 1.47655,1.6953 3.32681,3.0443 5.55078,4.0469 2.22394,1.0208 4.84894,1.5312 7.875,1.5312 1.73175,0 3.29034,-0.1276 4.67579,-0.3828 1.40361,-0.2552 2.67965,-0.6015 3.82812,-1.039 1.1484,-0.4193 2.20569,-0.9115 3.17188,-1.4766 0.98433,-0.5651 1.92313,-1.1667 2.8164,-1.8047 l 0.90235,1.3945 m -8.72266,-27.0976 c -0.18232,-0.018 -0.3555,-0.036 -0.51953,-0.055 -0.14587,-0.018 -0.2917,-0.027 -0.4375,-0.027 -0.14587,-0.018 -0.27347,-0.027 -0.38281,-0.027 -0.52868,0 -1.11201,0.027 -1.75,0.082 -0.61982,0.055 -1.25784,0.1641 -1.91407,0.3282 -0.63804,0.1458 -1.27606,0.3555 -1.91406,0.6289 -0.63804,0.2734 -1.21226,0.638 -1.72266,1.0937 -0.52866,0.474 -1.02996,1.112 -1.5039,1.9141 -0.47398,0.7839 -0.89325,1.6862 -1.25781,2.707 -0.34638,1.0209 -0.62893,2.1237 -0.84766,3.3086 -0.20054,1.1849 -0.3008,2.4063 -0.30078,3.6641 -2e-5,1.2943 0.18227,2.2969 0.54687,3.0078 0.36457,0.7109 0.91144,1.0664 1.64063,1.0664 0.65623,0 1.32159,-0.1003 1.99609,-0.3008 0.69269,-0.2005 1.35805,-0.4466 1.9961,-0.7383 0.65622,-0.3099 1.25778,-0.6471 1.80468,-1.0117 0.56508,-0.3828 1.03904,-0.7383 1.42188,-1.0664 l 3.14453,-14.5742"
         style="font-size:56px;font-variant:normal;font-stretch:normal;font-family:Liberation Serif;-inkscape-font-specification:Liberation Serif"
         id="path3222"
         inkscape:connector-curvature="0" />
      <path
         d="m 309.78571,1049.0195 c -2.11461,0.6927 -4.31123,1.2761 -6.58984,1.75 -2.27867,0.474 -4.73049,0.711 -7.35547,0.711 -2.89846,0 -5.51434,-0.392 -7.84766,-1.1758 -2.31511,-0.8021 -4.29297,-1.9779 -5.93359,-3.5274 -1.64063,-1.5677 -2.89844,-3.4999 -3.77344,-5.7968 -0.875,-2.2969 -1.3125,-4.9492 -1.3125,-7.9571 0,-6.4166 1.60417,-11.2109 4.8125,-14.3828 3.22656,-3.19 7.9479,-4.7851 14.16407,-4.7851 2.36976,0 4.62106,0.1458 6.7539,0.4375 2.15101,0.2917 4.19268,0.6927 6.125,1.2031 l 0,7.875 -1.83203,0 -0.73828,-4.5391 c -1.25784,-0.8932 -2.77086,-1.5768 -4.53906,-2.0508 -1.75003,-0.4921 -3.60029,-0.7382 -5.55078,-0.7382 -2.13284,0 -4.03778,0.3008 -5.71485,0.9023 -1.65887,0.5834 -3.06251,1.5404 -4.21094,2.8711 -1.14844,1.3308 -2.03256,3.0808 -2.65234,5.25 -0.60157,2.1511 -0.90235,4.7852 -0.90234,7.9024 -1e-5,3.1536 0.35546,5.7877 1.0664,7.9023 0.71093,2.0964 1.66796,3.7734 2.8711,5.0312 1.22134,1.2579 2.62498,2.1511 4.21093,2.6797 1.60415,0.5287 3.29035,0.793 5.0586,0.793 0.89321,0 1.77732,-0.055 2.65234,-0.1641 0.89321,-0.1276 1.72263,-0.2825 2.48828,-0.4648 0.78383,-0.1823 1.47654,-0.3828 2.07813,-0.6016 0.60153,-0.2187 1.07549,-0.4284 1.42187,-0.6289 l 0,-10.4179 -4.70312,-0.711 0,-1.4765 13.53515,0 0,1.4765 -3.58203,0.711 0,11.9218"
         style="font-size:56px;font-variant:normal;font-stretch:normal;font-family:Liberation Serif;-inkscape-font-specification:Liberation Serif"
         id="path3224"
         inkscape:connector-curvature="0" />
      <path
         d="m 321.05915,1027.3086 c 0.51041,-0.2916 1.11197,-0.6015 1.80469,-0.9297 0.71092,-0.3281 1.44009,-0.6289 2.1875,-0.9023 0.74738,-0.2734 1.50389,-0.4922 2.26953,-0.6563 0.76561,-0.1823 1.47655,-0.2734 2.13281,-0.2734 1.2578,0 2.41535,0.237 3.47266,0.7109 1.0755,0.474 1.87758,1.2305 2.40625,2.2695 0.58331,-0.3281 1.28513,-0.6653 2.10547,-1.0117 0.82028,-0.3645 1.66794,-0.6927 2.54297,-0.9843 0.8932,-0.2917 1.7682,-0.5287 2.625,-0.711 0.87496,-0.1823 1.65882,-0.2734 2.35156,-0.2734 0.98434,0 1.87757,0.1367 2.67969,0.4101 0.80204,0.2735 1.48564,0.711 2.05078,1.3125 0.58329,0.6016 1.02991,1.3855 1.33984,2.3516 0.32809,0.9662 0.49215,2.1328 0.49219,3.5 l 0,16.8984 3.30859,0.6836 0,1.2305 -11.67578,0 0,-1.2305 3.82813,-0.6836 0,-16.4062 c -4e-5,-1.513 -0.34639,-2.6706 -1.03907,-3.4727 -0.67451,-0.8203 -1.78649,-1.2304 -3.33593,-1.2304 -0.47399,0 -1.02998,0.036 -1.66797,0.1093 -0.61982,0.073 -1.24873,0.155 -1.88672,0.2461 -0.61982,0.091 -1.22138,0.2006 -1.80469,0.3282 -0.56513,0.1093 -1.03909,0.2005 -1.42187,0.2734 0.30987,0.9844 0.46482,2.069 0.46484,3.2539 l 0,16.8984 3.85547,0.6836 0,1.2305 -12.19531,0 0,-1.2305 3.80078,-0.6836 0,-16.4062 c -2e-5,-1.513 -0.39195,-2.6706 -1.17578,-3.4727 -0.76565,-0.8203 -1.9232,-1.2304 -3.47266,-1.2304 -0.51043,0 -1.04819,0.027 -1.61328,0.082 -0.54689,0.055 -1.09376,0.1185 -1.64063,0.1914 -0.52865,0.073 -1.03907,0.1641 -1.53125,0.2734 -0.47396,0.091 -0.87501,0.1732 -1.20312,0.2461 l 0,20.3164 3.85547,0.6836 0,1.2305 -11.64844,0 0,-1.2305 3.25391,-0.6836 0,-21.875 -3.25391,-0.6836 0,-1.2304 7.51953,0 0.21875,2.0781"
         style="word-spacing:0px;-inkscape-font-specification:Liberation Serif"
         id="path3226"
         inkscape:connector-curvature="0" />
      <path
         d="m 367.39118,1024.6563 c 1.16665,0 2.25129,0.1094 3.25391,0.3281 1.00259,0.2188 1.86847,0.5924 2.59765,1.1211 0.72915,0.5286 1.29426,1.2487 1.69532,2.1601 0.41925,0.8933 0.62888,2.0235 0.6289,3.3907 l 0,17.3632 3.19922,0.6836 0,1.2305 -7.05469,0 -0.51953,-2.5703 c -0.27345,0.2734 -0.64715,0.5924 -1.12109,0.957 -0.45574,0.3646 -1.01173,0.711 -1.66797,1.0391 -0.65626,0.3099 -1.42189,0.5742 -2.29687,0.7929 -0.85679,0.2188 -1.81382,0.3282 -2.8711,0.3282 -1.23959,0 -2.28776,-0.1914 -3.14453,-0.5742 -0.83855,-0.3829 -1.51302,-0.9115 -2.02344,-1.586 -0.51042,-0.6927 -0.875,-1.5039 -1.09375,-2.4336 -0.21875,-0.9479 -0.32812,-1.9687 -0.32812,-3.0625 0,-1.1302 0.13671,-2.1054 0.41015,-2.9258 0.27344,-0.8385 0.65625,-1.5403 1.14844,-2.1054 0.49219,-0.5651 1.0664,-1.0209 1.72266,-1.3672 0.67447,-0.3646 1.39452,-0.6471 2.16015,-0.8477 0.78385,-0.2005 1.60416,-0.3372 2.46094,-0.4101 0.87499,-0.073 1.74999,-0.1185 2.625,-0.1367 l 3.85547,-0.1094 0,-4.0196 c -2e-5,-0.7656 -0.0638,-1.4583 -0.19141,-2.0781 -0.12762,-0.638 -0.34637,-1.1849 -0.65625,-1.6406 -0.29168,-0.4557 -0.69272,-0.8112 -1.20312,-1.0664 -0.51043,-0.2552 -1.14845,-0.3828 -1.91406,-0.3828 -0.87501,0 -1.75913,0.1185 -2.65235,0.3554 -0.89323,0.237 -1.67709,0.5469 -2.35156,0.9297 l -0.92969,3.1993 -1.53125,0 0,-5.6055 c 1.18489,-0.2552 2.40625,-0.474 3.66407,-0.6563 1.27603,-0.2005 2.65233,-0.3007 4.1289,-0.3007 m 3.63672,13.1796 -3.58203,0.1094 c -1.07553,0.036 -2.00522,0.1459 -2.78906,0.3281 -0.78387,0.1641 -1.431,0.4558 -1.94141,0.875 -0.51042,0.4193 -0.89324,0.9935 -1.14844,1.7227 -0.25521,0.7292 -0.38282,1.6589 -0.38281,2.7891 -10e-6,3.2083 1.30338,4.8125 3.91016,4.8125 1.23957,0 2.30597,-0.1368 3.19922,-0.4102 0.91144,-0.2917 1.8229,-0.6562 2.73437,-1.0937 l 0,-9.1329"
         style="font-size:56px;font-variant:normal;font-stretch:normal;font-family:Liberation Serif;-inkscape-font-specification:Liberation Serif"
         id="path3228"
         inkscape:connector-curvature="0" />
      <path
         d="m 389.86774,1016.8359 c -1e-5,0.4011 -0.082,0.7839 -0.24609,1.1485 -0.14584,0.3464 -0.35548,0.6563 -0.62891,0.9297 -0.27344,0.2734 -0.59245,0.4922 -0.95703,0.6562 -0.36459,0.1459 -0.7474,0.2188 -1.14843,0.2188 -0.40105,0 -0.78387,-0.073 -1.14844,-0.2188 -0.34636,-0.164 -0.65626,-0.3828 -0.92969,-0.6562 -0.27344,-0.2734 -0.49219,-0.5833 -0.65625,-0.9297 -0.14584,-0.3646 -0.21875,-0.7474 -0.21875,-1.1485 0,-0.401 0.0729,-0.7838 0.21875,-1.1484 0.16406,-0.3645 0.38281,-0.6836 0.65625,-0.957 0.27343,-0.2734 0.58333,-0.4831 0.92969,-0.6289 0.36457,-0.1641 0.74739,-0.2461 1.14844,-0.2461 0.40103,0 0.78384,0.082 1.14843,0.2461 0.36458,0.1458 0.68359,0.3555 0.95703,0.6289 0.27343,0.2734 0.48307,0.5925 0.62891,0.957 0.16405,0.3646 0.24608,0.7474 0.24609,1.1484 m -0.27343,32.1836 4.40234,0.6836 0,1.2305 -13.31641,0 0,-1.2305 4.375,-0.6836 0,-21.875 -3.63671,-0.6836 0,-1.2304 8.17578,0 0,23.789"
         style="font-size:56px;font-variant:normal;font-stretch:normal;font-family:Liberation Serif;-inkscape-font-specification:Liberation Serif"
         id="path3230"
         inkscape:connector-curvature="0" />
      <path
         d="m 405.07087,1049.0195 4.40234,0.6836 0,1.2305 -13.3164,0 0,-1.2305 4.375,-0.6836 0,-35.0547 -4.375,-0.6562 0,-1.2305 8.91406,0 0,36.9414"
         style="font-size:56px;font-variant:normal;font-stretch:normal;font-family:Liberation Serif;-inkscape-font-specification:Liberation Serif"
         id="path3232"
         inkscape:connector-curvature="0" />
      <path
         d="m 420.87556,1048.418 c -1e-5,0.4557 -0.0912,0.8841 -0.27344,1.2851 -0.16407,0.4011 -0.39194,0.7565 -0.68359,1.0664 -0.29168,0.2917 -0.64715,0.5196 -1.06641,0.6836 -0.40105,0.1823 -0.82944,0.2735 -1.28516,0.2735 -0.47396,0 -0.91146,-0.091 -1.3125,-0.2735 -0.40104,-0.164 -0.7474,-0.3919 -1.03906,-0.6836 -0.29167,-0.3099 -0.52865,-0.6653 -0.71094,-1.0664 -0.16406,-0.401 -0.24609,-0.8294 -0.24609,-1.2851 0,-0.4558 0.082,-0.8841 0.24609,-1.2852 0.18229,-0.4193 0.41927,-0.7747 0.71094,-1.0664 0.29166,-0.2917 0.63802,-0.5195 1.03906,-0.6836 0.40104,-0.1823 0.83854,-0.2734 1.3125,-0.2734 0.45572,0 0.88411,0.091 1.28516,0.2734 0.41926,0.1641 0.77473,0.3919 1.06641,0.6836 0.29165,0.2917 0.51952,0.6471 0.68359,1.0664 0.18228,0.4011 0.27343,0.8294 0.27344,1.2852"
         style="font-size:56px;font-variant:normal;font-stretch:normal;font-family:Liberation Serif;-inkscape-font-specification:Liberation Serif"
         id="path3234"
         inkscape:connector-curvature="0" />
      <path
         d="m 447.69978,1049.375 c -0.47399,0.3464 -1.03909,0.6563 -1.69532,0.9297 -0.65627,0.2552 -1.35809,0.4648 -2.10547,0.6289 -0.74741,0.1823 -1.53126,0.319 -2.35156,0.4102 -0.8021,0.091 -1.58595,0.1367 -2.35156,0.1367 -2.22397,0 -4.12892,-0.3008 -5.71484,-0.9024 -1.56772,-0.6198 -2.85287,-1.513 -3.85547,-2.6797 -1.00261,-1.1666 -1.74089,-2.5885 -2.21485,-4.2656 -0.47396,-1.6953 -0.71094,-3.6094 -0.71093,-5.7422 -10e-6,-2.3333 0.30077,-4.3385 0.90234,-6.0156 0.61979,-1.6953 1.47656,-3.0807 2.57031,-4.1562 1.09375,-1.0938 2.38801,-1.8959 3.88281,-2.4063 1.51301,-0.5104 3.16275,-0.7656 4.94922,-0.7656 1.47655,0 2.90754,0.091 4.29297,0.2734 1.3854,0.1641 2.64321,0.3555 3.77344,0.5742 l 0,7.1641 -1.50391,0 -1.17578,-4.5391 c -0.6745,-0.3828 -1.49481,-0.6927 -2.46094,-0.9297 -0.94793,-0.2369 -1.94142,-0.3554 -2.98046,-0.3554 -1.18491,0 -2.23309,0.2187 -3.14454,0.6562 -0.89324,0.4193 -1.65886,1.0847 -2.29687,1.9961 -0.6198,0.9115 -1.09376,2.069 -1.42188,3.4727 -0.3099,1.4036 -0.46485,3.0807 -0.46484,5.0312 -10e-6,1.6407 0.13671,3.1263 0.41016,4.4571 0.27343,1.3125 0.7565,2.4336 1.44922,3.3632 0.69269,0.9297 1.62238,1.6498 2.78906,2.1602 1.18488,0.5104 2.67967,0.7656 4.48437,0.7656 0.61978,0 1.24868,-0.018 1.88672,-0.055 0.65623,-0.055 1.28514,-0.1185 1.88672,-0.1914 0.61977,-0.091 1.19399,-0.1914 1.72266,-0.3008 0.54685,-0.1093 1.02992,-0.2278 1.44922,-0.3554 l 0,1.6406"
         style="font-size:56px;font-variant:normal;font-stretch:normal;font-family:Liberation Serif;-inkscape-font-specification:Liberation Serif"
         id="path3236"
         inkscape:connector-curvature="0" />
      <path
         d="m 475.26228,1037.9453 c -3e-5,4.3568 -0.97529,7.7018 -2.92579,10.0352 -1.95054,2.3333 -4.98569,3.5 -9.10546,3.5 -3.8646,0 -6.78126,-1.1576 -8.75,-3.4727 -1.96876,-2.3151 -2.95313,-5.6692 -2.95313,-10.0625 0,-4.3385 0.98437,-7.6562 2.95313,-9.9531 1.96874,-2.2969 4.95832,-3.4453 8.96875,-3.4453 3.90102,0 6.84503,1.1302 8.83203,3.3906 1.98695,2.2422 2.98044,5.5781 2.98047,10.0078 m -4.92188,0 c -2e-5,-1.7682 -0.11851,-3.345 -0.35547,-4.7305 -0.237,-1.4036 -0.63804,-2.5794 -1.20312,-3.5273 -0.5469,-0.9661 -1.27606,-1.6953 -2.1875,-2.1875 -0.91148,-0.5104 -2.03257,-0.7656 -3.36328,-0.7656 -1.34898,0 -2.46095,0.2552 -3.33594,0.7656 -0.87501,0.4922 -1.56772,1.2214 -2.07813,2.1875 -0.51042,0.9479 -0.86589,2.1237 -1.0664,3.5273 -0.20053,1.3855 -0.30079,2.9623 -0.30078,4.7305 -10e-6,1.7865 0.10025,3.3815 0.30078,4.7852 0.20051,1.4036 0.55598,2.5976 1.0664,3.582 0.51041,0.9661 1.20312,1.7135 2.07813,2.2422 0.87499,0.5104 1.98696,0.7656 3.33594,0.7656 1.33071,0 2.4518,-0.2552 3.36328,-0.7656 0.91144,-0.5287 1.6406,-1.2761 2.1875,-2.2422 0.56508,-0.9844 0.96612,-2.1784 1.20312,-3.582 0.23696,-1.4037 0.35545,-2.9987 0.35547,-4.7852"
         style="font-size:56px;font-variant:normal;font-stretch:normal;font-family:Liberation Serif;-inkscape-font-specification:Liberation Serif"
         id="path3238"
         inkscape:connector-curvature="0" />
      <path
         d="m 486.30915,1027.3086 c 0.51041,-0.2916 1.11197,-0.6015 1.80469,-0.9297 0.71092,-0.3281 1.44009,-0.6289 2.1875,-0.9023 0.74738,-0.2734 1.50389,-0.4922 2.26953,-0.6563 0.76561,-0.1823 1.47655,-0.2734 2.13281,-0.2734 1.2578,0 2.41535,0.237 3.47266,0.7109 1.0755,0.474 1.87758,1.2305 2.40625,2.2695 0.58331,-0.3281 1.28513,-0.6653 2.10547,-1.0117 0.82028,-0.3645 1.66794,-0.6927 2.54297,-0.9843 0.8932,-0.2917 1.7682,-0.5287 2.625,-0.711 0.87496,-0.1823 1.65882,-0.2734 2.35156,-0.2734 0.98434,0 1.87757,0.1367 2.67969,0.4101 0.80204,0.2735 1.48564,0.711 2.05078,1.3125 0.58329,0.6016 1.02991,1.3855 1.33984,2.3516 0.32809,0.9662 0.49215,2.1328 0.49219,3.5 l 0,16.8984 3.30859,0.6836 0,1.2305 -11.67578,0 0,-1.2305 3.82813,-0.6836 0,-16.4062 c -4e-5,-1.513 -0.34639,-2.6706 -1.03907,-3.4727 -0.67451,-0.8203 -1.78649,-1.2304 -3.33593,-1.2304 -0.47399,0 -1.02998,0.036 -1.66797,0.1093 -0.61982,0.073 -1.24873,0.155 -1.88672,0.2461 -0.61982,0.091 -1.22138,0.2006 -1.80469,0.3282 -0.56513,0.1093 -1.03909,0.2005 -1.42187,0.2734 0.30987,0.9844 0.46482,2.069 0.46484,3.2539 l 0,16.8984 3.85547,0.6836 0,1.2305 -12.19531,0 0,-1.2305 3.80078,-0.6836 0,-16.4062 c -2e-5,-1.513 -0.39195,-2.6706 -1.17578,-3.4727 -0.76565,-0.8203 -1.9232,-1.2304 -3.47266,-1.2304 -0.51043,0 -1.04819,0.027 -1.61328,0.082 -0.54689,0.055 -1.09376,0.1185 -1.64063,0.1914 -0.52865,0.073 -1.03907,0.1641 -1.53125,0.2734 -0.47396,0.091 -0.87501,0.1732 -1.20312,0.2461 l 0,20.3164 3.85547,0.6836 0,1.2305 -11.64844,0 0,-1.2305 3.25391,-0.6836 0,-21.875 -3.25391,-0.6836 0,-1.2304 7.51953,0 0.21875,2.0781"
         style="font-size:56px;font-variant:normal;font-stretch:normal;font-family:Liberation Serif;-inkscape-font-specification:Liberation Serif"
         id="path3240"
         inkscape:connector-curvature="0" />
    </g>
    <rect
       style="fill:#000000"
       id="rect3264"
       width="11.111678"
       height="3.7565045"
       x="127.21609"
       y="1034.9054" />
    <rect
       style="fill:#000000"
       id="rect3264-8"
       width="11.111678"
       height="3.7565045"
       x="295.13611"
       y="1034.9036" />
  </g>
</svg>
